# xmcd CD database file
#
# Track frame offsets:
#	150
#	25169
#	42764
#	68087
#	84736
#	101025
#	119628
#	139629
#	164876
#	182209
#	206426
#
# Disc length: 2985 seconds
#
# Revision: 0
# Processed by: cddbd v1.5.2PL0 Copyright (c) Steve Scherf et al.
# Submitted via: CDex 1.83
#
DISCID=9e0ba70b
DTITLE=Viper Swing - Viper Swing
DYEAR=2018
DGENRE=Jazz
TTITLE0=Exactly Like You
TTITLE1=I'll See You In My Dreams
TTITLE2=Billy Jean
TTITLE3=Diga Diga Doo
TTITLE4=All of Me
TTITLE5=Get Lucky
TTITLE6=Nuages
TTITLE7=Hall of the Angry Bird
TTITLE8=I Found a New Baby
TTITLE9=Sir Duke
TTITLE10=Viper Mad
EXTD=YEAR: 2018
EXTT0=
EXTT1=
EXTT2=
EXTT3=
EXTT4=
EXTT5=
EXTT6=
EXTT7=
EXTT8=
EXTT9=
EXTT10=
PLAYORDER=
